#N canvas 2724 369 690 465 10;
#X obj 140 314 vline~;
#X obj 44 47 inlet~;
#X text 10 29 sinal sintetizado;
#X obj 140 45 inlet;
#X obj 225 47 inlet;
#X text 206 30 final de nota;
#X text 461 180 Soltura;
#X text 461 160 Decaimento;
#X text 461 140 Ataque;
#X obj 405 160 nbx 5 14 0 20000 0 0 ADSR-D empty empty 0 -8 0 10 -262144
-1 -1 40 256;
#X obj 405 180 nbx 5 14 0 20000 0 0 ADSR-R empty empty 0 -8 0 10 -262144
-1 -1 10 256;
#X obj 405 140 nbx 5 14 0 20000 0 0 ADSR-A empty empty 0 -8 0 10 -262144
-1 -1 100 256;
#X obj 140 80 unpack f f;
#X text 458 124 Duracao em ms;
#X obj 408 198 hsl 48 15 0 1 0 0 empty empty empty -2 -8 0 10 -262144
-1 -1 1410 1;
#X text 461 198 Amplitude;
#X text 461 209 de Sustentacao;
#X obj 324 79 loadbang;
#X floatatom 405 213 5 0 0 0 - - ADSR-S, f 5;
#X obj 140 107 t f f;
#X obj 140 198 pack f f f f;
#X obj 163 158 r ADSR-A;
#X obj 167 129 *;
#X obj 182 108 r ADSR-S;
#X obj 209 177 r ADSR-D;
#X text 147 216 Ataque e Decaimento;
#N canvas 2975 600 450 250 (subpatch) 0;
#X array ADSR-ENV 9280 float 0;
#X coords 0 1 9279 0 140 100 1 0 0;
#X restore 405 245 graph;
#X obj 229 69 s ADSR-FIM;
#X obj 274 202 r ADSR-FIM;
#X msg 281 283 0 \$1;
#X obj 281 256 f;
#X obj 296 225 r ADSR-R;
#X obj 43 356 *~;
#X obj 42 422 outlet~;
#X msg 371 123 100;
#X msg 355 143 40;
#X msg 339 162 10;
#X msg 324 181 0.3;
#X text 413 27 Hugo Mitsumori // 8 9 4 1 2 6 2;
#X text 399 45 Gustavo Caparica // 7 9 9 1 0 2 0;
#X msg 140 234 \$1 \$2 \, \$3 \$4 \$2;
#X text 453 102 ADSR;
#X text 114 29 amplitude/freq;
#X obj 324 102 t b b b b b;
#N canvas 2363 412 581 608 adsr-env 0;
#X obj 56 54 inlet;
#X obj 191 57 r ADSR-A;
#X obj 174 105 +;
#X obj 191 79 t b f;
#X obj 174 158 +;
#X obj 202 126 t b f;
#X obj 202 104 r ADSR-D;
#X obj 174 32 r ADSR-R;
#X obj 174 180 t f f;
#X obj 201 204 / 2;
#X obj 174 228 +;
#X msg 191 325 \; ADSR-ENV resize \$1;
#X obj 173 505 vline~;
#X obj 219 421 r ADSR-D;
#X obj 196 404 r ADSR-S;
#X obj 174 387 r ADSR-A;
#X obj 242 438 r ADSR-R;
#X obj 266 391 -;
#X obj 281 361 r ADSR-R;
#X obj 173 460 pack f f f f f;
#X obj 153 530 tabwrite~ ADSR-ENV;
#X obj 174 250 t b f f b;
#X msg 173 482 0 \, 1 \$1 \, \$2 \$3 \$1 \, 0 \$4 \$5;
#X obj 121 52 r ADSR-S;
#X text 10 119 Fazemos um sinal falso;
#X text 10 132 com vline~ \, para visualização;
#X text 10 145 apenas.;
#X text 214 183 Tamanho = A+D+R+(A+D+R)/2;
#X obj 256 220 bang~;
#X obj 256 242 samplerate~;
#X obj 256 264 / 1000;
#X obj 191 290 * 44.1;
#X text 221 504 Nota: A atualização não é instantanea;
#X connect 0 0 2 0;
#X connect 1 0 3 0;
#X connect 2 0 4 0;
#X connect 3 0 2 0;
#X connect 3 1 2 1;
#X connect 4 0 8 0;
#X connect 5 0 4 0;
#X connect 5 1 4 1;
#X connect 6 0 5 0;
#X connect 7 0 2 0;
#X connect 8 0 10 0;
#X connect 8 1 9 0;
#X connect 9 0 10 1;
#X connect 10 0 21 0;
#X connect 12 0 20 0;
#X connect 13 0 19 2;
#X connect 14 0 19 1;
#X connect 15 0 19 0;
#X connect 16 0 19 3;
#X connect 17 0 19 4;
#X connect 18 0 17 1;
#X connect 19 0 22 0;
#X connect 21 0 19 0;
#X connect 21 1 31 0;
#X connect 21 2 17 0;
#X connect 21 3 20 0;
#X connect 22 0 12 0;
#X connect 23 0 2 0;
#X connect 28 0 29 0;
#X connect 29 0 30 0;
#X connect 30 0 31 1;
#X connect 31 0 11 0;
#X restore 258 137 pd adsr-env;
#X text 224 124 Atualiza visualização;
#X connect 0 0 32 1;
#X connect 1 0 32 0;
#X connect 3 0 12 0;
#X connect 4 0 27 0;
#X connect 12 0 19 0;
#X connect 14 0 18 0;
#X connect 17 0 43 0;
#X connect 19 0 20 0;
#X connect 19 1 22 0;
#X connect 20 0 40 0;
#X connect 21 0 20 1;
#X connect 22 0 20 2;
#X connect 23 0 22 1;
#X connect 24 0 20 3;
#X connect 28 0 30 0;
#X connect 29 0 0 0;
#X connect 30 0 29 0;
#X connect 31 0 30 1;
#X connect 32 0 33 0;
#X connect 34 0 11 0;
#X connect 35 0 9 0;
#X connect 36 0 10 0;
#X connect 37 0 14 0;
#X connect 40 0 0 0;
#X connect 43 0 44 0;
#X connect 43 1 37 0;
#X connect 43 2 36 0;
#X connect 43 3 35 0;
#X connect 43 4 34 0;
#X coords 0 -1 1 1 150 250 2 400 100;
