#N canvas 3003 351 778 503 10;
#X obj 166 392 vline~;
#X obj 35 35 inlet~;
#X text 1 17 sinal sintetizado;
#X obj 166 36 inlet;
#X text 114 18 amplitude de pico/frequência;
#X obj 311 36 inlet;
#X text 292 19 final de nota;
#X text 461 180 Soltura;
#X text 461 160 Decaimento;
#X text 461 140 Ataque;
#X obj 405 160 nbx 5 14 0 20000 0 0 ADSR-D empty empty 0 -8 0 10 -262144
-1 -1 517 256;
#X obj 405 180 nbx 5 14 0 20000 0 0 ADSR-R empty empty 0 -8 0 10 -262144
-1 -1 10 256;
#X obj 405 140 nbx 5 14 0 20000 0 0 ADSR-A empty empty 0 -8 0 10 -262144
-1 -1 91 256;
#X obj 166 178 unpack f f;
#X text 458 124 Duracao em ms;
#X obj 408 198 hsl 48 15 0 1 0 0 empty empty empty -2 -8 0 10 -262144
-1 -1 800 1;
#X text 461 198 Amplitude;
#X text 461 209 de Sustentacao;
#X obj 324 79 loadbang;
#X floatatom 405 213 5 0 0 0 - - ADSR-S, f 5;
#X obj 166 205 t f f;
#X obj 166 296 pack f f f f;
#X obj 189 256 r ADSR-A;
#X obj 193 227 *;
#X obj 208 206 r ADSR-S;
#X obj 235 275 r ADSR-D;
#X text 173 314 Ataque e Decaimento;
#N canvas 2975 600 450 250 (subpatch) 0;
#X array ADSR-ENV 44100 float 2;
#X coords 0 0 44100 1 140 100 1 0 0;
#X restore 405 245 graph;
#X obj 312 204 samplerate~;
#X obj 324 102 t b b b b b;
#X msg 283 226 \; ADSR-ENV resize \$1;
#X obj 190 460 tabwrite~ ADSR-ENV;
#X obj 223 431 metro 100;
#X obj 223 411 tgl 15 0 empty empty empty 17 7 0 10 -262144 -1 -1 1
1;
#X obj 315 58 s ADSR-FIM;
#X obj 321 289 r ADSR-FIM;
#X msg 328 370 0 \$1;
#X obj 328 343 f;
#X obj 343 312 r ADSR-R;
#X obj 69 364 *~;
#X text 285 445 TODO: o display do envelope ta bugado;
#X obj 62 437 outlet~;
#X obj 260 397 loadbang;
#X msg 371 123 100;
#X msg 355 143 40;
#X msg 339 162 10;
#X msg 324 181 0.3;
#X text 413 27 Hugo Mitsumori // 8 9 4 1 2 6 2;
#X text 399 45 Gustavo Caparica // 7 9 9 1 0 2 0;
#X msg 166 332 \$1 \$2 \, \$3 \$4 \$2;
#X text 453 102 ADSR;
#X connect 0 0 31 0;
#X connect 0 0 39 1;
#X connect 1 0 39 0;
#X connect 3 0 13 0;
#X connect 5 0 34 0;
#X connect 13 0 20 0;
#X connect 15 0 19 0;
#X connect 18 0 29 0;
#X connect 20 0 21 0;
#X connect 20 1 23 0;
#X connect 21 0 49 0;
#X connect 22 0 21 1;
#X connect 23 0 21 2;
#X connect 24 0 23 1;
#X connect 25 0 21 3;
#X connect 28 0 30 0;
#X connect 29 0 28 0;
#X connect 29 1 46 0;
#X connect 29 2 45 0;
#X connect 29 3 44 0;
#X connect 29 4 43 0;
#X connect 32 0 31 0;
#X connect 33 0 32 0;
#X connect 35 0 37 0;
#X connect 36 0 0 0;
#X connect 37 0 36 0;
#X connect 38 0 37 1;
#X connect 39 0 41 0;
#X connect 42 0 33 0;
#X connect 43 0 12 0;
#X connect 44 0 10 0;
#X connect 45 0 11 0;
#X connect 46 0 15 0;
#X connect 49 0 0 0;
#X coords 0 -1 1 1 150 250 2 400 100;
