#N canvas 411 599 450 300 10;
#X obj 22 10 inlet~;
#X obj 372 8 inlet;
#X obj 17 150 vcf~;
#X obj 19 274 outlet~;
#X obj 30 100 osc~;
#X obj 30 124 *~;
#X obj 18 230 +~;
#X obj 19 193 *~;
#X obj 169 196 expr 1 - $f1;
#X obj 61 217 *~;
#X obj 131 31 cnv 15 178 148 empty empty empty 20 12 0 14 -180205 -66577
0;
#X obj 140 103 hsl 128 15 0 1 0 0 empty empty empty -2 -8 0 10 -262144
-1 -1 8400 1;
#X obj 140 131 hsl 128 15 700 6000 0 0 empty empty empty -2 -8 0 10
-262144 -1 -1 10400 1;
#X obj 140 157 hsl 128 15 0 20 0 0 empty empty empty -2 -8 0 10 -262144
-1 -1 10500 1;
#X text 275 157 Q;
#X obj 140 73 hsl 128 15 0 1 0 0 empty empty empty -2 -8 0 10 -262144
-1 -1 10700 1;
#X text 137 56 Dry;
#X text 249 55 Wet;
#X text 273 103 freq;
#X text 275 129 amp;
#X text 137 32 Auto Wah;
#X obj 58 171 * 2;
#X obj 19 41 s~ wah-sig;
#X obj 17 71 r~ wah-sig;
#X obj 62 193 r~ wah-sig;
#X text 214 252 Hugo Mitsumori // 8 9 4 1 2 6 2;
#X text 200 270 Gustavo Caparica // 7 9 9 1 0 2 0;
#X text 103 222 filtro passa banda com oscilador controlável;
#X connect 0 0 22 0;
#X connect 2 0 7 0;
#X connect 4 0 5 0;
#X connect 5 0 2 1;
#X connect 6 0 3 0;
#X connect 7 0 6 0;
#X connect 8 0 9 1;
#X connect 9 0 6 1;
#X connect 11 0 4 0;
#X connect 12 0 5 1;
#X connect 13 0 2 2;
#X connect 15 0 8 0;
#X connect 15 0 21 0;
#X connect 21 0 7 1;
#X connect 23 0 2 0;
#X connect 24 0 9 0;
#X coords 0 -1 1 1 180 150 1 130 30;
