#N canvas 2855 463 1043 669 10;
#N canvas 234 198 450 250 (subpatch) 0;
#X array wave 200 float 1;
#A 0 0 0 0 0 0 0 0 0 0 0 0 0 0 0 0 0 0 0 0 0 0 0 0 0 0 0 0 0 0 0 0
0 0 0 0 0 0 0 0 0 0 0 0 0 0 0 0 0 0 0 0 0 0 0 0 0 0 0 0 0 0 0 0 0 0
0 0 0 0 0 0 0 0 0 0 0 0 0 0 0 0 0 0 0 0 0 0 0 0 0 0 0 0 0 0 0 0 0 0
0 0 0 0 0 0 0 0 0 0 0 0 0 0 0 0 0 0 0 0 0 0 0 0 0 0 0 0 0 0 0 0 0 0
0 0 0 0 0 0 0 0 0 0 0 0 0 0 0 0 0 0 0 0 0 0 0 0 0 0 0 0 0 0 0 0 0 0
0 0 0 0 0 0 0 0 0 0 0 0 0 0 0 0 0 0 0 0 0 0 0 0 0 0 0 0 0 0 0 0 0;
#X coords 0 1 199 -1 200 140 1 0 0;
#X restore 71 231 graph;
#X obj 17 43 vradio 15 1 1 2 controle empty empty 0 -8 0 10 -262144
-1 -1 0;
#N canvas 3465 569 433 228 multiplexer1 0;
#X obj 97 7 inlet;
#X obj 36 7 inlet;
#X obj 246 8 inlet;
#X obj 332 8 inlet;
#X obj 142 122 outlet;
#X obj 217 124 outlet;
#X obj 155 8 r controle;
#X obj 36 72 spigot;
#X obj 154 30 == 0;
#X obj 102 71 spigot;
#X obj 225 78 spigot;
#X obj 291 77 spigot;
#X obj 341 33 == 1;
#X connect 0 0 9 0;
#X connect 1 0 7 0;
#X connect 2 0 10 0;
#X connect 3 0 11 0;
#X connect 6 0 8 0;
#X connect 6 0 12 0;
#X connect 7 0 4 0;
#X connect 8 0 7 1;
#X connect 8 0 9 1;
#X connect 9 0 5 0;
#X connect 10 0 4 0;
#X connect 11 0 5 0;
#X connect 12 0 10 1;
#X connect 12 0 11 1;
#X restore 108 561 pd multiplexer1;
#X obj 17 105 vradio 15 1 1 4 sintese empty empty 0 -8 0 10 -262144
-1 -1 0;
#X text 33 106 VCO;
#N canvas 0 50 450 278 (subpatch) 0;
#X array output 200 float 5;
#A 0 0 0 0 0 0 0 0 0 0 0 0 0 0 0 0 0 0 0 0 0 0 0 0 0 0 0 0 0 0 0 0
0 0 0 0 0 0 0 0 0 0 0 0 0 0 0 0 0 0 0 0 0 0 0 0 0 0 0 0 0 0 0 0 0 0
0 0 0 0 0 0 0 0 0 0 0 0 0 0 0 0 0 0 0 0 0 0 0 0 0 0 0 0 0 0 0 0 0 0
0 0 0 0 0 0 0 0 0 0 0 0 0 0 0 0 0 0 0 0 0 0 0 0 0 0 0 0 0 0 0 0 0 0
0 0 0 0 0 0 0 0 0 0 0 0 0 0 0 0 0 0 0 0 0 0 0 0 0 0 0 0 0 0 0 0 0 0
0 0 0 0 0 0 0 0 0 0 0 0 0 0 0 0 0 0 0 0 0 0 0 0 0 0 0 0 0 0 0 0 0;
#X coords 0 1 199 -1 200 140 1 0 0;
#X restore 71 392 graph;
#N canvas 2980 192 376 363 graphoutput 0;
#X obj 30 37 inlet~;
#X obj 116 25 loadbang;
#X obj 116 50 tgl 15 0 empty empty empty 17 7 0 10 -262144 -1 -1 1
1;
#X obj 110 112 tabwrite~ output;
#X obj 116 70 metro 50;
#X obj 31 163 env~;
#X obj 31 185 - 100;
#X obj 31 207 s vu-rms;
#X obj 94 140 iemlib/peakenv~;
#X obj 94 229 snapshot~;
#X obj 107 162 loadbang;
#X obj 107 185 tgl 15 0 empty empty empty 17 7 0 10 -262144 -1 -1 1
1;
#X obj 108 205 metro 25;
#X obj 94 295 s vu-peak;
#X obj 94 251 rmstodb;
#X obj 94 273 - 100;
#X connect 0 0 3 0;
#X connect 0 0 5 0;
#X connect 0 0 8 0;
#X connect 1 0 2 0;
#X connect 2 0 4 0;
#X connect 4 0 3 0;
#X connect 5 0 6 0;
#X connect 6 0 7 0;
#X connect 8 0 9 0;
#X connect 9 0 14 0;
#X connect 10 0 11 0;
#X connect 11 0 12 0;
#X connect 12 0 9 0;
#X connect 14 0 15 0;
#X connect 15 0 13 0;
#X restore 11 543 pd graphoutput;
#X obj 11 505 dac~;
#X text 164 12 Hugo Mitsumori // 8 9 4 1 2 6 2;
#X text 150 30 Gustavo Caparica // 7 9 9 1 0 2 0;
#X obj 15 239 vu 15 120 empty empty -1 -8 0 10 -66577 -1 1 0;
#X obj 14 215 r vu-rms;
#X obj 24 198 r vu-peak;
#X obj 822 479 auto-wah;
#X obj 150 51 ler-midi;
#X obj 365 9 sequenciador;
#X obj 416 182 sintese-fm;
#X obj 615 182 sintese-aditiva;
#X obj 276 317 adsr;
#X obj 430 318 fir;
#X obj 615 419 phaser;
#X obj 313 111 s mno;
#X obj 150 111 s maf;
#X obj 365 159 s saf;
#X obj 981 159 s sno;
#X obj 108 578 s af;
#X obj 195 578 s no;
#X obj 276 163 r af;
#X obj 416 165 r af;
#X obj 579 165 r no;
#X obj 615 165 r af;
#X obj 108 544 r maf;
#X obj 142 544 r mno;
#X obj 176 544 r saf;
#X obj 210 544 r sno;
#X text 33 43 Leitor de MIDI;
#X text 34 58 Sequenciador;
#X text 13 27 Controlador;
#X text 14 87 Sintese de Onda;
#X text 33 120 Aditiva (Fourier);
#X text 33 135 FM;
#X text 23 172 ^ Configurações ^;
#X text 23 9 v Configurações v;
#X obj 276 280 throw~ s;
#X obj 276 300 catch~ s;
#X obj 416 272 throw~ s;
#X obj 615 382 throw~ s;
#X obj 347 300 r af;
#X obj 398 301 r no;
#X obj 974 462 r af;
#X obj 787 402 r af;
#X obj 276 567 s~ s-env;
#X obj 430 301 r~ s-env;
#X obj 582 302 r af;
#X obj 430 618 s~ f1;
#X obj 615 402 r~ f1;
#X obj 615 519 s~ f2;
#X obj 822 462 r~ f2;
#X obj 11 526 r~ out;
#X obj 11 462 r~ out;
#X obj 11 566 loadbang;
#X obj 11 479 *~;
#X obj 10 369 hsl 50 15 0 1 0 0 vol vol-set empty -2 -8 0 10 -262144
-1 -1 4900 1;
#X obj 11 583 t b b;
#X obj 11 600 f 1;
#X obj 26 445 r vol;
#X obj 11 617 s vol-set;
#X text 13 384 Volume;
#X obj 875 182 sintese-karplus;
#X obj 875 165 r af;
#X obj 875 262 throw~ s;
#X text 34 149 Karplus-Strong;
#X obj 276 180 sintese-vco;
#X obj 928 298 r af;
#X obj 871 298 r~ f3;
#X obj 871 315 reverb;
#X obj 821 629 s~ f3;
#X obj 871 455 s~ out;
#X connect 2 0 25 0;
#X connect 2 1 26 0;
#X connect 11 0 10 0;
#X connect 12 0 10 1;
#X connect 13 0 76 0;
#X connect 14 0 22 0;
#X connect 14 1 21 0;
#X connect 15 0 23 0;
#X connect 15 1 24 0;
#X connect 16 0 45 0;
#X connect 17 0 46 0;
#X connect 18 0 51 0;
#X connect 19 0 54 0;
#X connect 20 0 56 0;
#X connect 27 0 72 0;
#X connect 28 0 16 0;
#X connect 29 0 16 1;
#X connect 30 0 17 0;
#X connect 31 0 2 0;
#X connect 32 0 2 1;
#X connect 33 0 2 2;
#X connect 34 0 2 3;
#X connect 44 0 18 0;
#X connect 47 0 18 1;
#X connect 48 0 18 2;
#X connect 49 0 13 1;
#X connect 50 0 20 1;
#X connect 52 0 19 0;
#X connect 53 0 19 1;
#X connect 55 0 20 0;
#X connect 57 0 13 0;
#X connect 58 0 6 0;
#X connect 59 0 61 0;
#X connect 60 0 63 0;
#X connect 61 0 7 0;
#X connect 61 0 7 1;
#X connect 63 0 64 0;
#X connect 64 0 66 0;
#X connect 65 0 61 1;
#X connect 68 0 70 0;
#X connect 69 0 68 0;
#X connect 72 0 43 0;
#X connect 73 0 75 1;
#X connect 74 0 75 0;
#X connect 75 0 77 0;
