#N canvas 722 496 450 300 10;
#X msg 35 33 abrir arquivo MIDI;
#N canvas 859 260 450 397 lerMIDI 0;
#X obj 44 54 openpanel;
#X obj 43 222 unpack;
#X obj 117 171 bng 15 250 50 0 empty empty empty 17 7 0 10 -262144
-1 -1;
#X msg 75 115 read \$1;
#X obj 43 84 t b s;
#X obj 43 145 cyclone/seq;
#X obj 43 192 cyclone/midiparse;
#X msg 154 120 stop;
#X obj 43 248 stripnote;
#X obj 43 280 mtof;
#X obj 45 344 outlet;
#X obj 44 34 bng 15 250 50 0 empty empty empty 17 7 0 10 -262144 -1
-1;
#X obj 43 11 inlet;
#X obj 125 247 sel 0;
#X obj 157 272 / 127;
#X obj 44 313 pack \$1 \$2;
#X obj 134 345 outlet;
#X obj 134 323 bng 15 250 50 0 empty empty empty 17 7 0 10 -262144
-1 -1;
#X connect 0 0 4 0;
#X connect 1 0 8 0;
#X connect 1 1 8 1;
#X connect 1 1 13 0;
#X connect 3 0 5 0;
#X connect 4 0 5 0;
#X connect 4 1 3 0;
#X connect 5 0 6 0;
#X connect 5 1 2 0;
#X connect 6 0 1 0;
#X connect 7 0 5 0;
#X connect 7 0 2 0;
#X connect 8 0 9 0;
#X connect 9 0 15 0;
#X connect 11 0 0 0;
#X connect 12 0 11 0;
#X connect 13 0 17 0;
#X connect 13 1 14 0;
#X connect 14 0 15 1;
#X connect 15 0 10 0;
#X connect 17 0 16 0;
#X restore 35 63 pd lerMIDI;
#N canvas 972 459 450 300 VCO 1;
#X obj 29 12 inlet;
#X obj 176 13 inlet;
#X obj 38 231 outlet~;
#X obj 127 234 outlet;
#X obj 232 232 outlet;
#X obj 55 40 s f-a;
#X obj 127 210 r f-a;
#X obj 200 44 s bg;
#X obj 231 210 r bg;
#X connect 0 0 5 0;
#X connect 1 0 7 0;
#X connect 6 0 3 0;
#X connect 8 0 4 0;
#X restore 35 96 pd VCO;
#X connect 0 0 1 0;
#X connect 1 0 2 0;
#X connect 1 1 2 1;
