#N canvas 811 281 1087 521 10;
#X msg 206 13 abrir arquivo MIDI;
#N canvas 832 519 450 424 lerMIDI 0;
#X obj 32 109 openpanel;
#X obj 31 277 unpack;
#X obj 105 226 bng 15 250 50 0 empty empty empty 17 7 0 10 -262144
-1 -1;
#X msg 63 170 read \$1;
#X obj 31 139 t b s;
#X obj 31 200 cyclone/seq;
#X obj 31 247 cyclone/midiparse;
#X msg 142 175 stop;
#X obj 31 303 stripnote;
#X obj 31 335 mtof;
#X obj 33 399 outlet;
#X obj 31 89 bng 15 250 50 0 empty empty empty 17 7 0 10 -262144 -1
-1;
#X obj 113 302 sel 0;
#X obj 145 327 / 127;
#X obj 32 368 pack \$1 \$2;
#X obj 122 400 outlet;
#X obj 122 378 bng 15 250 50 0 empty empty empty 17 7 0 10 -262144
-1 -1;
#X obj 165 68 inlet;
#X msg 140 218 0;
#X obj 97 32 r controle;
#X obj 97 84 sel 1;
#X obj 30 5 inlet;
#X obj 27 60 sel;
#X msg 28 35 0;
#X connect 0 0 4 0;
#X connect 1 0 8 0;
#X connect 1 1 8 1;
#X connect 1 1 12 0;
#X connect 3 0 5 0;
#X connect 4 0 5 0;
#X connect 4 1 3 0;
#X connect 5 0 6 0;
#X connect 5 1 2 0;
#X connect 6 0 1 0;
#X connect 7 0 5 0;
#X connect 7 0 2 0;
#X connect 7 0 18 0;
#X connect 8 0 9 0;
#X connect 9 0 14 0;
#X connect 11 0 0 0;
#X connect 12 0 16 0;
#X connect 12 1 13 0;
#X connect 13 0 14 1;
#X connect 14 0 10 0;
#X connect 16 0 15 0;
#X connect 17 0 7 0;
#X connect 18 0 9 0;
#X connect 19 0 20 0;
#X connect 19 0 22 1;
#X connect 20 1 7 0;
#X connect 21 0 23 0;
#X connect 22 0 11 0;
#X connect 23 0 22 0;
#X restore 206 68 pd lerMIDI;
#N canvas 224 379 558 507 VCO 0;
#X obj 29 12 inlet;
#X obj 152 235 outlet;
#X obj 262 246 outlet;
#X obj 55 40 s f-a;
#X obj 152 211 r f-a;
#X obj 267 216 r bg;
#X obj 29 131 phasor~;
#X obj 29 101 sig~;
#X obj 29 72 unpack f f;
#X obj 78 175 *~;
#X floatatom 133 121 5 0 0 0 - - -, f 5;
#X obj 79 238 outlet~;
#X obj 70 262 tabwrite~ wave;
#X obj 5 193 tgl 15 0 empty empty empty 17 7 0 10 -262144 -1 -1 0 1
;
#X obj 176 13 inlet;
#X obj 200 44 s bg;
#X obj 5 217 metro 100;
#X obj 123 327 dac~;
#X connect 0 0 3 0;
#X connect 0 0 8 0;
#X connect 4 0 1 0;
#X connect 5 0 2 0;
#X connect 6 0 9 0;
#X connect 7 0 6 0;
#X connect 8 0 7 0;
#X connect 8 0 10 0;
#X connect 8 1 9 1;
#X connect 9 0 11 0;
#X connect 9 0 12 0;
#X connect 9 0 17 0;
#X connect 9 0 17 1;
#X connect 13 0 16 0;
#X connect 14 0 15 0;
#X connect 16 0 12 0;
#X restore 323 133 pd VCO;
#N canvas 0 50 450 250 (subpatch) 0;
#X array wave 100 float 1;
#A 0 9.00197 9.05809 9.11421 9.17034 9.22646 9.28258 9.3387 9.39483
9.45095 9.50707 9.56319 9.61932 9.67544 9.73156 9.78768 9.84381 9.89993
9.95605 10.0122 10.0683 10.1244 10.1805 10.2367 10.2928 10.3489 10.405
10.4612 10.5173 10.5734 10.6295 10.6856 10.7418 10.7979 10.854 10.9101
10.9663 11.0224 11.0785 11.1346 11.1907 11.2469 0.0529893 0.109112
0.165234 0.221357 0.277479 0.333602 0.389724 0.445846 0.501969 0.558091
0.614214 0.670336 0.726459 0.782581 0.838704 0.894826 0.950948 1.00707
1.06319 1.11932 1.17544 1.23156 1.28768 1.34381 1.39993 1.45605 1.51217
1.5683 1.62442 1.68054 1.73666 1.79279 1.84891 1.90503 1.96115 2.01728
2.0734 2.12952 2.18564 2.24176 2.29789 2.35401 2.41013 2.46625 2.52238
2.5785 2.63462 2.69074 2.74687 2.80299 2.85911 2.91523 2.97136 3.02748
3.0836 3.13972 3.19585 3.25197 3.30809;
#X coords 0 10 100 -1 200 140 1 0 0;
#X restore 833 24 graph;
#X msg 257 39 stop;
#N canvas 0 50 450 250 (subpatch) 0;
#X array sequencia 20 float 3;
#A 0 137.5 158.125 189.063 204.531 220 250.938 292.188 343.75 364.375
385 436.563 477.813 519.063 529.375 539.688 570.625 622.188 642.813
663.438 704.688;
#X coords 0 880 20 55 200 80 1 0 0;
#X restore 569 20 graph;
#N canvas 173 300 522 319 sequenciador 0;
#X obj 38 300 outlet;
#X obj 161 301 outlet;
#X obj 38 259 pack f f;
#X obj 37 80 metro;
#X obj 36 49 tgl 15 0 empty empty empty 17 7 0 10 -262144 -1 -1 0 1
;
#X obj 37 113 f;
#X obj 37 176 tabread sequencia;
#X obj 36 208 t b f;
#X msg 95 84 0;
#X msg 4 111 0;
#X obj 179 46 inlet;
#X obj 133 69 expr (60/$f1)*1000;
#X obj 193 177 tabread amplitude;
#X obj 336 174 tabread duração;
#X obj 81 113 + 1;
#X obj 136 132 expr floor($f1);
#X obj 201 104 expr (1/floor($f1));
#X obj 37 139 mod 20;
#X obj 75 42 loadbang;
#X obj 36 18 r controle;
#X connect 2 0 0 0;
#X connect 3 0 5 0;
#X connect 4 0 3 0;
#X connect 4 0 9 0;
#X connect 5 0 14 0;
#X connect 5 0 15 0;
#X connect 5 0 17 0;
#X connect 6 0 7 0;
#X connect 7 0 1 0;
#X connect 7 1 2 0;
#X connect 8 0 5 1;
#X connect 9 0 5 0;
#X connect 10 0 11 0;
#X connect 11 0 3 1;
#X connect 12 0 2 1;
#X connect 13 0 16 0;
#X connect 14 0 5 1;
#X connect 15 0 17 0;
#X connect 16 0 14 1;
#X connect 17 0 6 0;
#X connect 17 0 12 0;
#X connect 17 0 13 0;
#X connect 18 0 4 0;
#X connect 19 0 4 0;
#X restore 398 67 pd sequenciador;
#X floatatom 398 39 5 0 0 0 - - -, f 5;
#X text 395 13 bpm;
#N canvas 0 50 450 250 (subpatch) 0;
#X array amplitude 20 float 3;
#A 0 16.875 19.125 25.875 27.5625 29.25 34.875 38.25 41.625 45 50.625
51.75 51.75 51.75 47.25 36 33.75 29.25 27 24.75 11.25;
#X coords 0 90 20 0 200 80 1 0 0;
#X restore 568 117 graph;
#N canvas 0 50 450 250 (subpatch) 0;
#X array duração 20 float 3;
#A 0 5.8125 5.8125 5.8125 1.6125 3.1 3.625 2.225 3.3625 3.1 2.575 3.45
5.2 5.8125 1.2625 1.2625 5.8125 2.1375 2.1375 2.1375 2.1375;
#X coords 0 8 20 1 200 80 1 0 0;
#X restore 568 218 graph;
#X obj 23 64 vradio 15 1 0 2 empty empty empty 0 -8 0 10 -262144 -1
-1 0;
#X text 18 15 Configurações;
#X text 46 61 leitor de MIDI;
#X text 48 79 sequenciador;
#X obj 23 104 s controle;
#X obj 4 39 loadbang;
#N canvas 876 415 450 300 multiplexer1 1;
#X obj 97 7 inlet;
#X obj 36 7 inlet;
#X obj 246 8 inlet;
#X obj 332 8 inlet;
#X obj 142 122 outlet;
#X obj 217 124 outlet;
#X obj 155 8 r controle;
#X obj 36 72 spigot;
#X obj 154 30 == 0;
#X obj 102 71 spigot;
#X obj 225 78 spigot;
#X obj 291 77 spigot;
#X obj 343 36 == 1;
#X connect 0 0 9 0;
#X connect 1 0 7 0;
#X connect 2 0 10 0;
#X connect 3 0 11 0;
#X connect 6 0 8 0;
#X connect 6 0 12 0;
#X connect 7 0 4 0;
#X connect 8 0 7 1;
#X connect 8 0 9 1;
#X connect 9 0 5 0;
#X connect 10 0 4 0;
#X connect 11 0 5 0;
#X connect 12 0 10 1;
#X connect 12 0 11 1;
#X restore 292 98 pd multiplexer1;
#X connect 0 0 1 0;
#X connect 1 0 17 0;
#X connect 1 1 17 1;
#X connect 4 0 1 1;
#X connect 6 0 17 2;
#X connect 6 1 17 3;
#X connect 7 0 6 0;
#X connect 11 0 15 0;
#X connect 16 0 11 0;
#X connect 17 0 2 0;
#X connect 17 1 2 1;
