#N canvas 551 69 1114 822 10;
#N canvas 302 273 381 496 lerMIDI 0;
#X obj 32 109 openpanel;
#X obj 31 277 unpack;
#X obj 105 226 bng 15 250 50 0 empty empty empty 17 7 0 10 -262144
-1 -1;
#X msg 63 170 read \$1;
#X obj 31 139 t b s;
#X obj 31 200 cyclone/seq;
#X obj 31 247 cyclone/midiparse;
#X msg 142 175 stop;
#X obj 31 303 stripnote;
#X obj 31 335 mtof;
#X obj 33 399 outlet;
#X obj 31 89 bng 15 250 50 0 empty empty empty 17 7 0 10 -262144 -1
-1;
#X obj 113 302 sel 0;
#X obj 145 327 / 127;
#X obj 122 400 outlet;
#X obj 122 378 bng 15 250 50 0 empty empty empty 17 7 0 10 -262144
-1 -1;
#X msg 140 218 0;
#X obj 97 32 r controle;
#X obj 97 84 sel 1;
#X obj 27 60 sel;
#X msg 28 35 0;
#X obj 208 117 bng 15 250 50 0 open empty empty 17 7 0 10 -262144 -1
-1;
#X obj 208 138 bng 15 250 50 0 stop empty empty 17 7 0 10 -262144 -1
-1;
#X text 233 115 abrir arquivo MIDI;
#X text 235 134 parar;
#X obj 30 5 r open;
#X obj 165 68 r stop;
#X obj 32 368 pack f f;
#X connect 0 0 4 0;
#X connect 1 0 8 0;
#X connect 1 1 8 1;
#X connect 1 1 12 0;
#X connect 3 0 5 0;
#X connect 4 0 5 0;
#X connect 4 1 3 0;
#X connect 5 0 6 0;
#X connect 5 1 2 0;
#X connect 6 0 1 0;
#X connect 7 0 5 0;
#X connect 7 0 2 0;
#X connect 7 0 16 0;
#X connect 8 0 9 0;
#X connect 9 0 27 0;
#X connect 11 0 0 0;
#X connect 12 0 15 0;
#X connect 12 1 13 0;
#X connect 13 0 27 1;
#X connect 15 0 14 0;
#X connect 16 0 9 0;
#X connect 17 0 18 0;
#X connect 17 0 19 1;
#X connect 18 1 7 0;
#X connect 19 0 11 0;
#X connect 20 0 19 0;
#X connect 25 0 20 0;
#X connect 26 0 7 0;
#X connect 27 0 10 0;
#X coords 0 -1 1 1 170 60 1 200 100;
#X restore 211 100 pd lerMIDI;
#N canvas 743 338 562 476 VCO 0;
#X obj 67 -2 inlet;
#X obj 353 309 outlet;
#X obj 425 313 outlet;
#X obj 76 20 s f-a;
#X obj 349 280 r f-a;
#X obj 426 286 r bg;
#X obj 67 101 phasor~;
#X obj 67 74 sig~;
#X obj 67 46 unpack f f;
#X obj 171 281 *~;
#X obj 199 396 outlet~;
#X obj 177 420 tabwrite~ wave;
#X obj 112 351 tgl 15 0 empty empty empty 17 7 0 10 -262144 -1 -1 1
1;
#X obj 311 25 inlet;
#X obj 311 49 s bg;
#X obj 112 375 metro 100;
#X obj 307 121 vradio 15 1 0 5 shape empty empty 0 -8 0 10 -262144
-1 -1 2;
#X text 328 134 triangular;
#X text 328 118 senoidal;
#X text 328 148 dente-de-serra;
#X text 329 162 quadrada;
#X text 330 177 pulso;
#X obj 1 110 r shape;
#X obj 67 149 zexy/demultiplex~ . . . . .;
#X obj 66 175 cos~;
#X obj 119 174 *~ -1;
#X obj 118 199 +~ 1;
#X obj 108 223 min~;
#X obj 181 191 expr~ $v1 > 0.5;
#X obj 257 229 -~ 0.99;
#X obj 259 264 clip~ 0 1;
#X obj 263 296 *~ 100;
#X obj 185 327 lop~ 22050;
#X obj 411 376 block~ 64 1 4;
#X obj 164 1 r sintese;
#X obj 145 79 expr if($f2 == 0 \, $f1 \, 0);
#X msg 256 24 0;
#X msg 292 -1 1;
#X floatatom 181 125 5 0 0 0 - - -, f 5;
#X obj 53 290 r sintese;
#X obj 76 321 == 0;
#X connect 0 0 3 0;
#X connect 0 0 8 0;
#X connect 4 0 1 0;
#X connect 5 0 2 0;
#X connect 6 0 23 0;
#X connect 7 0 6 0;
#X connect 8 0 7 0;
#X connect 8 1 35 0;
#X connect 9 0 32 0;
#X connect 12 0 15 0;
#X connect 13 0 14 0;
#X connect 15 0 11 0;
#X connect 22 0 23 0;
#X connect 23 0 24 0;
#X connect 23 1 25 0;
#X connect 23 1 27 0;
#X connect 23 2 9 0;
#X connect 23 3 28 0;
#X connect 23 4 29 0;
#X connect 24 0 9 0;
#X connect 25 0 26 0;
#X connect 26 0 27 1;
#X connect 27 0 9 0;
#X connect 28 0 9 0;
#X connect 29 0 30 0;
#X connect 30 0 31 0;
#X connect 31 0 9 0;
#X connect 32 0 10 0;
#X connect 32 0 11 0;
#X connect 34 0 35 1;
#X connect 35 0 9 1;
#X connect 35 0 38 0;
#X connect 36 0 35 1;
#X connect 37 0 35 1;
#X connect 39 0 40 0;
#X connect 40 0 12 0;
#X coords 0 -1 1 1 200 100 1 300 100;
#X restore 257 205 pd VCO;
#N canvas 234 198 450 250 (subpatch) 0;
#X array wave 200 float 1;
#A 0 1.43261 1.43439 1.43617 1.43795 1.43973 1.44151 1.4433 1.44508
1.44686 1.44864 1.45042 1.4522 1.45398 1.45577 1.45755 1.45933 1.46111
1.46289 1.46467 1.46645 1.46823 1.47002 1.4718 1.47358 1.47536 1.47714
1.47892 1.4807 1.48249 1.48427 1.48605 1.48783 1.48961 1.49139 1.49317
1.49496 1.49674 1.49852 1.5003 1.50208 1.50386 1.50564 1.50742 1.50921
1.51099 1.51277 1.51455 1.51633 1.51811 1.51989 1.52168 1.52346 1.52524
1.52702 1.5288 1.53058 1.53236 1.53414 1.53593 1.53771 1.53949 1.54127
1.54305 1.54483 1.54661 1.5484 1.55018 1.55196 1.55374 1.55552 1.5573
1.55908 1.56087 1.56265 1.56443 1.56621 1.56799 1.56977 1.57155 1.57333
1.57512 1.5769 1.57868 1.58046 1.58224 1.58402 1.5858 1.58759 1.58937
1.59115 1.59293 1.59471 1.59649 1.59827 1.60006 1.60184 1.60362 1.6054
1.60718 1.60896 1.61074 1.61252 1.61431 1.61609 1.61787 1.61965 1.62143
1.62321 1.62499 1.62678 1.62856 1.63034 1.63212 1.6339 1.63568 1.63746
1.63924 1.64103 1.64281 1.64459 1.64637 1.64815 1.64993 1.65171 1.6535
1.65528 1.65706 1.65884 1.66062 1.6624 1.66418 1.66597 1.66775 1.66953
1.67131 1.67309 1.67487 1.67665 1.67843 1.68022 1.682 1.68378 1.68556
1.68734 1.68912 1.6909 1.69269 1.69447 1.69625 1.69803 1.69981 1.70159
1.70337 1.70515 1.70694 1.70872 1.7105 1.71228 1.71406 1.71584 1.71762
1.71941 1.72119 1.72297 1.72475 1.72653 1.72831 1.73009 1.73188 1.73366
1.73544 1.73722 1.739 1.74078 1.74256 1.74434 1.74613 1.74791 1.74969
1.75147 1.75325 1.75503 1.75681 1.7586 1.76038 1.76216 1.76394 1.76572
1.7675 1.76928 1.77107 1.77285 1.07759 0.929782 0.899462 0.894354 0.894657
0.896121 0.897834 0.899601;
#X coords 0 5 199 -1 200 140 1 0 0;
#X restore 16 408 graph;
#N canvas 490 500 1061 666 sequenciador 0;
#X obj 60 392 outlet;
#X obj 169 395 outlet;
#X obj 37 80 metro;
#X obj 36 49 tgl 15 0 empty empty empty 17 7 0 10 -262144 -1 -1 1 1
;
#X obj 37 113 f;
#X obj 37 176 tabread sequencia;
#X msg 95 84 0;
#X msg 4 111 0;
#X obj 133 69 expr (60/$f1)*1000;
#X obj 193 177 tabread amplitude;
#X obj 336 174 tabread duração;
#X obj 81 113 + 1;
#X obj 136 132 expr floor($f1);
#X obj 201 104 expr (1/floor($f1));
#X obj 37 139 mod 20;
#X obj 36 18 r controle;
#X floatatom 257 225 5 0 0 0 - - bpm, f 5;
#X text 304 223 bpm;
#X obj 162 29 r bpm;
#N canvas 0 50 450 250 (subpatch) 0;
#X array sequencia 20 float 3;
#A 0 498.438 405.625 343.75 261.25 323.125 354.063 343.75 189.063 271.563
292.188 354.063 271.563 333.438 426.25 374.688 364.375 292.188 271.563
240.625 405.625;
#X coords 0 880 20 55 200 80 1 0 0;
#X restore 255 260 graph;
#N canvas 0 50 450 250 (subpatch) 0;
#X array amplitude 20 float 3;
#A 0 0.8875 0.8875 0.8875 0.8875 0.8875 0.8875 0.8875 0.8875 0.8875
0.8875 0.8875 0.8875 0.8875 0.8875 0.8875 0.8875 0.8875 0.8875 0.8875
0.8875;
#X coords 0 1 20 0 200 80 1 0 0;
#X restore 462 260 graph;
#N canvas 0 50 450 250 (subpatch) 0;
#X array duração 20 float 3;
#A 0 3.7125 2.8375 2.05 2.225 1.6125 2.925 1.2625 4.0625 1.7 5.2875
4.325 5.025 4.7625 4.45625 2.05 3.8 3.625 3.3625 3.1 2.8375;
#X coords 0 8 20 1 200 80 1 0 0;
#X restore 668 260 graph;
#X obj 60 363 pack \$1 \$2;
#X obj 32 275 f;
#X obj 29 214 t f f;
#X obj 16 253 bng 15 250 50 0 empty empty empty 17 7 0 10 -262144 -1
-1;
#X obj 80 284 spigot;
#X obj 103 253 !=;
#X obj 74 314 t f b, f 6;
#X connect 2 0 4 0;
#X connect 3 0 2 0;
#X connect 3 0 7 0;
#X connect 4 0 11 0;
#X connect 4 0 12 0;
#X connect 4 0 14 0;
#X connect 5 0 24 0;
#X connect 6 0 4 1;
#X connect 7 0 4 0;
#X connect 8 0 2 1;
#X connect 9 0 22 1;
#X connect 10 0 13 0;
#X connect 11 0 4 1;
#X connect 12 0 14 0;
#X connect 13 0 11 1;
#X connect 14 0 5 0;
#X connect 14 0 9 0;
#X connect 14 0 10 0;
#X connect 15 0 3 0;
#X connect 18 0 8 0;
#X connect 22 0 0 0;
#X connect 23 0 27 1;
#X connect 24 0 23 1;
#X connect 24 0 26 0;
#X connect 24 1 25 0;
#X connect 24 1 27 0;
#X connect 25 0 23 0;
#X connect 26 0 28 0;
#X connect 27 0 26 1;
#X connect 28 0 22 0;
#X connect 28 1 1 0;
#X coords 0 -1 1 1 650 150 1 250 200;
#X restore 428 14 pd sequenciador;
#X obj 27 137 vradio 15 1 1 2 controle empty empty 0 -8 0 10 -262144
-1 -1 1;
#X text 22 88 Configurações;
#X text 50 134 leitor de MIDI;
#X text 52 152 sequenciador;
#X obj 10 109 loadbang;
#N canvas 1289 480 450 300 multiplexer1 0;
#X obj 97 7 inlet;
#X obj 36 7 inlet;
#X obj 246 8 inlet;
#X obj 332 8 inlet;
#X obj 142 122 outlet;
#X obj 217 124 outlet;
#X obj 155 8 r controle;
#X obj 36 72 spigot;
#X obj 154 30 == 0;
#X obj 102 71 spigot;
#X obj 225 78 spigot;
#X obj 291 77 spigot;
#X obj 341 33 == 1;
#X connect 0 0 9 0;
#X connect 1 0 7 0;
#X connect 2 0 10 0;
#X connect 3 0 11 0;
#X connect 6 0 8 0;
#X connect 6 0 12 0;
#X connect 7 0 4 0;
#X connect 8 0 7 1;
#X connect 8 0 9 1;
#X connect 9 0 5 0;
#X connect 10 0 4 0;
#X connect 11 0 5 0;
#X connect 12 0 10 1;
#X connect 12 0 11 1;
#X restore 342 176 pd multiplexer1;
#N canvas 588 193 678 516 ADSR 0;
#X obj 166 392 vline~;
#X obj 35 35 inlet~;
#X text 1 17 sinal sintetizado;
#X obj 166 36 inlet;
#X text 114 18 amplitude de pico/frequência;
#X obj 311 36 inlet;
#X text 292 19 final de nota;
#X text 461 180 Soltura;
#X text 461 160 Decaimento;
#X text 461 140 Ataque;
#X obj 405 160 nbx 5 14 0 20000 0 0 ADSR-D empty empty 0 -8 0 10 -262144
-1 -1 10 256;
#X obj 405 180 nbx 5 14 0 20000 0 0 ADSR-R empty empty 0 -8 0 10 -262144
-1 -1 97 256;
#X obj 405 140 nbx 5 14 0 20000 0 0 ADSR-A empty empty 0 -8 0 10 -262144
-1 -1 10 256;
#X obj 166 178 unpack f f;
#X text 458 124 Duracao em ms;
#X obj 408 198 hsl 48 15 0 1 0 0 empty empty empty -2 -8 0 10 -262144
-1 -1 450 1;
#X text 461 198 Amplitude;
#X text 461 209 de Sustentacao;
#X obj 324 79 loadbang;
#X msg 371 123 80;
#X msg 355 143 20;
#X msg 339 162 40;
#X floatatom 405 213 5 0 0 0 - - ADSR-S, f 5;
#X obj 166 205 t f f;
#X obj 166 296 pack f f f f;
#X obj 189 256 r ADSR-A;
#X obj 193 227 *;
#X obj 208 206 r ADSR-S;
#X obj 235 275 r ADSR-D;
#X text 173 314 Ataque e Decaimento;
#N canvas 2975 600 450 250 (subpatch) 0;
#X array ADSR-ENV 44100 float 2;
#X coords 0 0 44100 1 140 100 1 0 0;
#X restore 405 245 graph;
#X obj 312 204 samplerate~;
#X obj 324 102 t b b b b b;
#X msg 283 226 \; ADSR-ENV resize \$1;
#X obj 190 460 tabwrite~ ADSR-ENV;
#X obj 223 431 metro 100;
#X obj 223 411 tgl 15 0 empty empty empty 17 7 0 10 -262144 -1 -1 1
1;
#X obj 315 58 s ADSR-FIM;
#X obj 321 289 r ADSR-FIM;
#X msg 328 370 0 \$1;
#X obj 328 343 f;
#X obj 343 312 r ADSR-R;
#X obj 69 364 *~;
#X obj 135 361 print;
#X msg 166 332 0 \, \$1 \$2 \, \$3 \$4 \$2;
#X msg 324 181 0.5;
#X text 285 445 TODO: o display do envelope ta bugado;
#X obj 62 437 outlet~;
#X obj 260 397 loadbang;
#X connect 0 0 34 0;
#X connect 0 0 42 1;
#X connect 1 0 42 0;
#X connect 3 0 13 0;
#X connect 5 0 37 0;
#X connect 13 1 23 0;
#X connect 15 0 22 0;
#X connect 18 0 32 0;
#X connect 19 0 12 0;
#X connect 20 0 10 0;
#X connect 21 0 11 0;
#X connect 23 0 24 0;
#X connect 23 1 26 0;
#X connect 24 0 44 0;
#X connect 25 0 24 1;
#X connect 26 0 24 2;
#X connect 27 0 26 1;
#X connect 28 0 24 3;
#X connect 31 0 33 0;
#X connect 32 0 31 0;
#X connect 32 1 45 0;
#X connect 32 2 21 0;
#X connect 32 3 20 0;
#X connect 32 4 19 0;
#X connect 35 0 34 0;
#X connect 36 0 35 0;
#X connect 38 0 40 0;
#X connect 39 0 0 0;
#X connect 40 0 39 0;
#X connect 41 0 40 1;
#X connect 42 0 47 0;
#X connect 44 0 0 0;
#X connect 45 0 15 0;
#X connect 48 0 36 0;
#X coords 0 -1 1 1 150 250 1 400 100;
#X restore 314 458 pd ADSR;
#X obj 305 727 dac~;
#X text 180 33 Gustavo;
#X text 179 14 Hugo Mitsumori;
#N canvas 364 538 686 408 sinteseAditiva 0;
#N canvas 0 50 450 250 (subpatch) 0;
#X array amplitude-parciais 20 float 3;
#A 0 0.685714 0.649999 0.614285 0.585713 0.535712 0.499997 0.464283
0.442854 0.421425 0.378567 0.357138 0.328566 0.299995 0.235708 0.19285
0.164279 0.128564 0.0857061 0.0714202 0.0928555;
#X coords 0 1 19 0 200 140 1 0 0;
#X restore 309 102 graph;
#X obj 15 5 inlet;
#X obj 224 4 inlet;
#X obj 15 36 unpack f f;
#X obj 8 103 s f0;
#X obj 1 153 catch~ soma;
#X obj 3 258 outlet~;
#X obj 98 157 outlet;
#X obj 253 254 outlet;
#X obj 117 261 tabwrite~ wave;
#X obj 130 234 metro 100;
#X obj 219 198 tgl 15 0 empty empty empty 17 7 0 10 -262144 -1 -1 0
1;
#X obj 159 139 r sintese;
#X obj 177 163 == 1;
#X obj 4 227 *~;
#X obj 16 196 expr if ($f2 == 1 \, $f1 \, 0);
#X obj 239 365 parcial 15;
#X obj 320 366 parcial 16;
#X obj 402 366 parcial 17;
#X obj 482 364 parcial 18;
#X obj 561 365 parcial 19;
#X obj 320 292 parcial 1;
#X obj 400 291 parcial 2;
#X obj 478 291 parcial 3;
#X obj 242 316 parcial 5;
#X obj 319 315 parcial 6;
#X obj 401 315 parcial 7;
#X obj 481 313 parcial 8;
#X obj 560 314 parcial 9;
#X obj 244 289 parcial 0;
#X obj 557 288 parcial 4;
#X obj 238 339 parcial 10;
#X obj 320 339 parcial 11;
#X obj 400 338 parcial 12;
#X obj 478 338 parcial 13;
#X obj 559 338 parcial 14;
#X connect 1 0 3 0;
#X connect 1 0 7 0;
#X connect 2 0 8 0;
#X connect 3 0 4 0;
#X connect 3 1 15 0;
#X connect 5 0 14 0;
#X connect 10 0 9 0;
#X connect 11 0 10 0;
#X connect 12 0 13 0;
#X connect 13 0 11 0;
#X connect 13 0 15 1;
#X connect 14 0 6 0;
#X connect 14 0 9 0;
#X connect 15 0 14 1;
#X coords 0 -1 1 1 250 200 1 300 50;
#X restore 670 208 pd sinteseAditiva;
#X obj 27 189 vradio 15 1 1 4 sintese empty empty 0 -8 0 10 -262144
-1 -1 0;
#X text 48 190 VCO;
#X text 50 204 sintese aditiva;
#X msg 291 14 nusp: 8941 262;
#N canvas 1295 448 478 382 sinteseFM 0;
#X obj 16 12 inlet;
#X obj 133 31 inlet;
#X obj 152 329 outlet;
#X obj 19 349 outlet~;
#X obj 214 343 outlet;
#X obj 16 36 unpack f f;
#X obj 10 102 sig~;
#X obj 10 126 osc~;
#X text 275 263 harmonicidade;
#X text 273 299 indice de modulação;
#X obj 279 317 hsl 128 15 1 10 0 0 I empty empty -2 -8 0 10 -262144
-1 -1 10200 1;
#X obj 280 282 hsl 128 15 1 10 0 0 H empty empty -2 -8 0 10 -262144
-1 -1 9400 1;
#X obj 158 68 r H;
#X obj 116 94 *;
#X obj 113 116 sig~;
#X obj 113 140 osc~;
#X obj 418 316 tgl 15 0 amp-mod empty empty 17 7 0 10 -262144 -1 -1
1 1;
#X obj 20 292 *~;
#X obj 86 177 expr if($f3==1 \, $f1*$f2 \, $f1);
#X obj 180 127 r I;
#X obj 217 146 r amp-mod;
#X obj 53 72 f;
#X obj 232 211 r sintese;
#X obj 60 236 expr if($f2 == 2 \, $f1 \, 0);
#X obj 28 326 tabwrite~ wave;
#X obj 7 156 throw~ fm;
#X obj 5 190 throw~ fm;
#X obj 16 253 catch~ fm;
#X obj 50 306 metro 100;
#X connect 0 0 5 0;
#X connect 0 0 2 0;
#X connect 1 0 21 0;
#X connect 1 0 4 0;
#X connect 5 0 21 0;
#X connect 5 1 18 0;
#X connect 6 0 7 0;
#X connect 7 0 25 0;
#X connect 12 0 13 1;
#X connect 13 0 14 0;
#X connect 14 0 15 0;
#X connect 15 0 26 0;
#X connect 17 0 3 0;
#X connect 17 0 24 0;
#X connect 18 0 23 0;
#X connect 19 0 18 1;
#X connect 20 0 18 2;
#X connect 21 0 6 0;
#X connect 21 0 13 0;
#X connect 22 0 23 1;
#X connect 23 0 17 1;
#X connect 23 0 28 0;
#X connect 27 0 17 0;
#X connect 28 0 24 0;
#X coords 0 -1 1 1 170 90 1 270 250;
#X restore 482 217 pd sinteseFM;
#X text 52 219 sintese FM;
#X connect 0 0 9 0;
#X connect 0 1 9 1;
#X connect 1 0 10 0;
#X connect 1 1 10 1;
#X connect 1 2 10 2;
#X connect 3 0 9 2;
#X connect 3 1 9 3;
#X connect 8 0 4 0;
#X connect 8 0 15 0;
#X connect 9 0 14 0;
#X connect 9 0 1 0;
#X connect 9 0 19 0;
#X connect 9 1 14 1;
#X connect 9 1 1 1;
#X connect 9 1 19 1;
#X connect 10 0 11 0;
#X connect 10 0 11 1;
#X connect 14 0 10 0;
#X connect 14 1 10 1;
#X connect 14 2 10 2;
#X connect 19 0 10 0;
#X connect 19 1 10 1;
#X connect 19 2 10 2;
