#N canvas 790 96 679 430 10;
#X obj 20 28 inlet~;
#X obj 20 328 outlet~;
#X obj 184 29 inlet;
#X text 14 9 sinal sintetisado;
#X text 169 9 pares freq \, ampl;
#X text 13 350 sinal filtrado;
#X obj 231 43 r fir-carrega;
#X obj 230 78 openpanel;
#X obj 230 126 soundfiler;
#X msg 231 103 read -resize \$1 FIR-coefs;
#X obj 231 155 s fir-size;
#X obj 83 163 r fir-size;
#X msg 83 186 set FIR-coefs \$1;
#X obj 61 215 iemlib/FIR~ FIR-coefs 100;
#X obj 418 96 bng 15 250 50 0 fir-carrega empty empty 17 7 0 10 -262144
-1 -1;
#X text 441 96 Carregar coeficientes;
#N canvas 0 50 450 278 (subpatch) 0;
#X array FIR-coefs 1 float 2;
#X coords 0 1 1 -1 180 70 1 0 0;
#X restore 410 193 graph;
#X obj 418 117 bng 15 250 50 0 fir-limpa empty empty 17 7 0 10 -262144
-1 -1;
#X text 442 118 Limpar coeficientes;
#X obj 229 186 r fir-limpa;
#X obj 240 208 loadbang;
#X msg 247 280 1;
#X obj 247 302 array size FIR-coefs;
#X obj 228 233 t b b b;
#X msg 278 258 1;
#X obj 278 280 s fir-size;
#X msg 228 324 \; FIR-coefs const 1;
#N canvas 0 50 450 278 (subpatch) 0;
#X array FIR-resposta 22050 float 2;
#X coords 0 5 22050 -1 180 70 1 0 0;
#X restore 410 288 graph;
#X obj 422 154 hsl 150 15 0 1 0 0 FIR-mix empty empty -2 -8 0 10 -262144
-1 -1 0 1;
#X text 417 137 Dry;
#X text 552 137 Wet;
#X obj 46 90 r FIR-mix;
#X obj 46 112 expr 1 - $f1;
#X obj 20 50 s~ FIR-sinal;
#X obj 20 70 r~ FIR-sinal;
#X obj 58 141 r~ FIR-sinal;
#X obj 82 239 r FIR-mix;
#X obj 20 137 *~ 1;
#X obj 61 263 *~ 0;
#X obj 20 291 +~;
#N canvas 781 149 450 300 FIR-espectro 0;
#X obj 38 19 inlet;
#X obj 67 144 array size FIR-coefs;
#X obj 67 166 block~;
#X obj 48 192 tabplay~ FIR-coefs;
#X obj 48 214 rfft~;
#X obj 48 236 cyclone/cartopol~;
#X obj 87 74 samplerate~;
#X obj 87 96 expr $f1 / 2;
#X obj 87 118 array size FIR-resposta;
#X obj 48 258 tabwrite~ FIR-resposta;
#X obj 38 42 t b b b b;
#X connect 0 0 10 0;
#X connect 1 0 2 0;
#X connect 3 0 4 0;
#X connect 4 0 5 0;
#X connect 4 1 5 1;
#X connect 5 0 9 0;
#X connect 6 0 7 0;
#X connect 7 0 8 0;
#X connect 10 0 9 0;
#X connect 10 1 3 0;
#X connect 10 2 1 0;
#X connect 10 3 6 0;
#X restore 118 311 pd FIR-espectro;
#X obj 118 282 r fir-size;
#X connect 0 0 33 0;
#X connect 6 0 7 0;
#X connect 7 0 9 0;
#X connect 8 0 10 0;
#X connect 9 0 8 0;
#X connect 11 0 12 0;
#X connect 12 0 13 0;
#X connect 13 0 38 0;
#X connect 19 0 23 0;
#X connect 20 0 23 0;
#X connect 21 0 22 0;
#X connect 23 0 26 0;
#X connect 23 1 21 0;
#X connect 23 2 24 0;
#X connect 24 0 25 0;
#X connect 31 0 32 0;
#X connect 32 0 37 1;
#X connect 34 0 37 0;
#X connect 35 0 13 0;
#X connect 36 0 38 1;
#X connect 37 0 39 0;
#X connect 38 0 39 1;
#X connect 39 0 1 0;
#X connect 41 0 40 0;
#X coords 0 -1 1 1 200 300 1 400 70;
