#N canvas 3201 31 589 597 10;
#X obj 42 132 rpole~;
#X obj 42 107 rzero_rev~;
#X obj 42 181 rpole~;
#X obj 42 156 rzero_rev~;
#X obj 42 229 rpole~;
#X obj 42 204 rzero_rev~;
#X obj 42 278 rpole~;
#X obj 42 253 rzero_rev~;
#X obj 19 413 +~;
#X obj 197 224 phasor~ 0.3;
#X obj 197 256 expr~ 1 - 0.03 - 0.6*abs($v1-0.5)*abs($v1-0.5);
#X obj 16 6 inlet~;
#X obj 294 3 inlet;
#X obj 21 557 outlet~;
#X obj 15 30 s~ phaser-sig;
#X obj 20 492 +~;
#X obj 210 433 expr 1 - $f1;
#X obj 17 77 r~ phaser-sig;
#X obj 103 432 r~ phaser-sig;
#X obj 301 51 cnv 15 198 98 empty empty empty 20 12 0 14 -200704 -66577
0;
#X obj 42 328 rpole~;
#X obj 42 303 rzero_rev~;
#X obj 42 378 rpole~;
#X obj 42 353 rzero_rev~;
#X obj 80 409 r wet-phaser;
#X obj 221 408 r wet-phaser;
#X obj 317 122 hsl 168 15 0 1 0 0 empty empty empty -2 -8 0 10 -262144
-1 -1 0 1;
#X obj 340 84 hsl 128 15 0 1 0 0 wet-phaser empty empty -2 -8 0 10
-262144 -1 -1 0 1;
#X text 313 104 freq;
#X text 337 65 Dry;
#X text 447 65 Wet;
#X text 387 51 Phaser;
#X text 372 5 Hugo Mitsumori // 8 9 4 1 2 6 2;
#X text 358 23 Gustavo Caparica // 7 9 9 1 0 2 0;
#X text 203 166 baseado no exemplo H15;
#X text 123 347 adicionado mais filtros;
#X obj 110 469 *~ 1;
#X obj 20 450 *~ 0;
#X connect 0 0 3 0;
#X connect 1 0 0 0;
#X connect 2 0 5 0;
#X connect 3 0 2 0;
#X connect 4 0 7 0;
#X connect 5 0 4 0;
#X connect 6 0 21 0;
#X connect 7 0 6 0;
#X connect 8 0 37 0;
#X connect 9 0 10 0;
#X connect 10 0 1 1;
#X connect 10 0 0 1;
#X connect 10 0 3 1;
#X connect 10 0 2 1;
#X connect 10 0 5 1;
#X connect 10 0 4 1;
#X connect 10 0 7 1;
#X connect 10 0 6 1;
#X connect 10 0 21 1;
#X connect 10 0 20 1;
#X connect 10 0 23 1;
#X connect 10 0 22 1;
#X connect 11 0 14 0;
#X connect 15 0 13 0;
#X connect 16 0 36 1;
#X connect 17 0 1 0;
#X connect 17 0 8 0;
#X connect 18 0 36 0;
#X connect 20 0 23 0;
#X connect 21 0 20 0;
#X connect 22 0 8 1;
#X connect 23 0 22 0;
#X connect 24 0 37 1;
#X connect 25 0 16 0;
#X connect 36 0 15 1;
#X connect 37 0 15 0;
#X coords 0 -1 1 1 200 100 1 300 50;
