#N canvas 3201 31 442 525 10;
#X text 222 101 Reverb;
#X obj 41 35 inlet~;
#X obj 158 37 inlet;
#X obj 42 458 outlet~;
#X obj 42 320 freeverb~;
#X obj 211 129 hsl 64 15 0 1 0 0 wet-rev empty empty -2 -8 0 10 -262144
-1 -1 0 1;
#X text 201 114 Dry;
#X text 263 115 Wet;
#X obj 211 159 hsl 64 15 0.1 1 0 0 roomsize-rev empty empty -2 -8 0
10 -262144 -1 -1 0 1;
#X text 201 144 Roomsize;
#X obj 211 189 hsl 64 15 0 2 0 0 damping-rev empty empty -2 -8 0 10
-262144 -1 -1 0 1;
#X text 201 174 Damping;
#X obj 211 219 hsl 64 15 0 1 0 0 width-rev empty empty -2 -8 0 10 -262144
-1 -1 0 1;
#X text 201 204 Stereo Width;
#X obj 83 60 r wet-rev;
#X obj 83 82 t f f;
#X msg 109 104 wet \$1;
#X obj 83 124 expr 1 - \$1;
#X msg 83 146 dry \$1;
#X obj 104 171 r roomsize-rev;
#X msg 104 193 roomsize \$1;
#X obj 113 215 r damping-rev;
#X msg 113 237 damping \$1;
#X obj 126 262 r width-rev;
#X msg 126 284 width \$1;
#X obj 42 364 +~;
#X text 189 57 Hugo Mitsumori // 8 9 4 1 2 6 2;
#X text 175 75 Gustavo Caparica // 7 9 9 1 0 2 0;
#X text 39 17 sinal;
#X text 155 20 amp/freq;
#X text 44 477 output;
#X text 81 363 Faz mix dos canais stereo;
#X obj 93 342 *~ 0.5;
#X obj 42 342 *~ 0.5;
#X obj 304 110 loadbang;
#X obj 304 132 t b b b b;
#X msg 356 162 0;
#X msg 340 183 0;
#X msg 327 203 0;
#X msg 312 228 0;
#X obj 43 430 +~;
#X obj 42 405 *~;
#X obj 57 381 r wet-rev;
#X obj 14 102 s~ rev-signal;
#X obj 28 266 r~ rev-signal;
#X obj 163 311 r~ rev-signal;
#X obj 163 403 *~;
#X obj 178 335 r wet-rev;
#X obj 178 383 expr 1 - $f1;
#X connect 1 0 43 0;
#X connect 4 0 33 0;
#X connect 4 1 32 0;
#X connect 14 0 15 0;
#X connect 15 0 17 0;
#X connect 15 1 16 0;
#X connect 16 0 4 0;
#X connect 17 0 18 0;
#X connect 18 0 4 0;
#X connect 19 0 20 0;
#X connect 20 0 4 0;
#X connect 21 0 22 0;
#X connect 22 0 4 0;
#X connect 23 0 24 0;
#X connect 24 0 4 0;
#X connect 25 0 41 0;
#X connect 32 0 25 1;
#X connect 33 0 25 0;
#X connect 34 0 35 0;
#X connect 35 0 39 0;
#X connect 35 1 38 0;
#X connect 35 2 37 0;
#X connect 35 3 36 0;
#X connect 36 0 5 0;
#X connect 37 0 8 0;
#X connect 38 0 10 0;
#X connect 39 0 12 0;
#X connect 40 0 3 0;
#X connect 41 0 40 0;
#X connect 42 0 41 1;
#X connect 44 0 4 0;
#X connect 44 0 4 1;
#X connect 45 0 46 0;
#X connect 46 0 40 1;
#X connect 47 0 48 0;
#X connect 48 0 46 1;
#X coords 0 -1 1 1 85 140 2 200 100;
