#N canvas 3203 35 634 1381 10;
#X obj 37 439 outlet;
#X obj 168 393 outlet;
#X obj 37 80 metro;
#X obj 37 32 tgl 15 0 empty empty empty 17 7 0 10 -262144 -1 -1 1 1
;
#X obj 37 113 f;
#X obj 39 292 tabread sequencia;
#X msg 4 82 0;
#X obj 163 51 expr (60/$f1)*1000;
#X obj 205 190 tabread amplitude;
#X obj 339 187 tabread duração;
#X obj 81 111 + 1;
#X obj 38 162 mod 20;
#X obj 37 5 r controle;
#X obj 163 6 r bpm;
#X obj 37 363 pack \$1 \$2;
#X obj 6 243 f;
#X obj 38 190 t f f;
#X obj 19 219 bng 15 250 50 0 empty empty empty 17 7 0 10 -262144 -1
-1;
#X obj 38 266 spigot;
#X obj 77 229 !=;
#X obj 37 315 t f b, f 6;
#X obj 251 251 cnv 15 648 148 empty empty empty 20 12 0 14 -232576
-66577 0;
#X floatatom 259 275 5 0 0 2 - - bpm, f 5;
#N canvas 0 50 450 250 (subpatch) 0;
#X array sequencia 20 float 3;
#A 0 539.312 704.688 822.812 929.125 1011.81 1011.81 940.938 834.625
527.5 149.5 149.5 291.25 681.062 893.688 1011.81 1000 952.75 409.375
574.75 586.562;
#X coords 0 1000 20 55 200 80 1 0 0;
#X restore 257 314 graph;
#N canvas 3203 35 1272 1381 (subpatch) 0;
#X array amplitude 20 float 3;
#A 0 0.84375 0.84375 0.84375 0.84375 0.84375 0.84375 0.8325 0.8325
0.8325 0.8325 0.8325 0.8325 0.8325 0.82125 0.82125 0.82125 0.82125
0.82125 0.82125 0.82125;
#X coords 0 0.9 20 0 200 80 1 0 0;
#X restore 465 314 graph;
#N canvas 0 50 450 250 (subpatch) 0;
#X array duração 20 float 3;
#A 0 1.35001 1.35001 1.35001 1.35001 1.35001 1.35001 1.35001 1.35001
1.35001 1.35001 1.35001 1.35001 1.35001 1.35001 1.35001 1.35001 1.35001
1.35001 1.35001 1.35001;
#X coords 0 8 20 1 200 80 1 0 0;
#X restore 675 314 graph;
#X text 305 275 bpm;
#X obj 37 137 int;
#X obj 193 124 expr (1/$f1);
#X obj 193 100 int;
#X text 256 252 Sequenciador;
#X obj 163 29 * 4;
#X obj 339 212 s duracao;
#X obj 193 77 r duracao;
#X text 195 29 multiplica por 4 para que tenham notas de 1/4 de tempo
;
#X text 298 51 conversão de bpm para ms;
#X text 286 124 para que a nota tenha mais duração \, o contador
é incrementado mais devagar;
#X text 463 180 uma nova nota é tocada somente se o novo índice da
tabela for diferente do anterior. Caso contrário \, deixa a nota soar
;
#X obj 36 387 unpack f f;
#X obj 37 415 pack f f;
#X text 681 10 Hugo Mitsumori // 8 9 4 1 2 6 2;
#X text 667 28 Gustavo Caparica // 7 9 9 1 0 2 0;
#X obj 187 270 loadbang;
#X msg 187 292 180;
#X connect 2 0 4 0;
#X connect 3 0 2 0;
#X connect 3 0 6 0;
#X connect 4 0 10 0;
#X connect 4 0 27 0;
#X connect 5 0 20 0;
#X connect 6 0 4 0;
#X connect 7 0 2 1;
#X connect 8 0 14 1;
#X connect 9 0 32 0;
#X connect 10 0 4 1;
#X connect 11 0 8 0;
#X connect 11 0 9 0;
#X connect 11 0 16 0;
#X connect 12 0 3 0;
#X connect 13 0 31 0;
#X connect 14 0 38 0;
#X connect 15 0 19 1;
#X connect 16 0 15 1;
#X connect 16 0 18 0;
#X connect 16 1 17 0;
#X connect 16 1 19 0;
#X connect 17 0 15 0;
#X connect 18 0 5 0;
#X connect 19 0 18 1;
#X connect 20 0 14 0;
#X connect 20 1 1 0;
#X connect 27 0 11 0;
#X connect 28 0 10 1;
#X connect 29 0 28 0;
#X connect 31 0 7 0;
#X connect 33 0 29 0;
#X connect 38 0 39 1;
#X connect 38 1 39 0;
#X connect 39 0 0 0;
#X connect 42 0 43 0;
#X connect 43 0 22 0;
#X coords 0 -1 1 1 650 150 1 250 250;
