#N canvas 3109 279 770 745 10;
#X obj 67 -2 inlet;
#X obj 67 101 phasor~;
#X obj 68 79 sig~;
#X obj 67 46 unpack f f;
#X obj 199 396 outlet~;
#X obj 177 420 tabwrite~ wave;
#X obj 106 340 tgl 15 0 empty empty empty 17 7 0 10 -262144 -1 -1 1
1;
#X obj 106 373 metro 100;
#X obj 357 121 vradio 15 1 0 5 shape empty empty 0 -8 0 10 -262144
-1 -1 3;
#X text 374 136 triangular;
#X text 374 120 senoidal;
#X text 374 151 dente-de-serra;
#X text 374 165 quadrada;
#X text 374 180 pulso;
#X obj 18 123 r shape;
#X obj 67 149 zexy/demultiplex~ . . . . .;
#X obj 67 221 cos~;
#X obj 112 171 *~ -1;
#X obj 112 188 +~ 1;
#X obj 102 212 min~;
#X obj 195 358 lop~ 22050;
#X obj 411 376 block~ 64 1 4;
#X obj 197 47 r sintese;
#X obj 56 315 r sintese;
#X obj 56 341 == 0;
#X obj 76 20 s a-f;
#X obj 178 105 *;
#X obj 197 78 == 0;
#X text 421 1 Hugo Mitsumori // 8 9 4 1 2 6 2;
#X text 407 19 Gustavo Caparica // 7 9 9 1 0 2 0;
#X text 280 355 anti-aliasing;
#X text 410 393 oversampling;
#X text 364 102 Sintese VCO;
#X obj 185 243 expr~ if($v1 > 0.5 \, 1 \, -1);
#X obj 154 490 zexy/multiplex~;
#X obj 67 277 zexy/multiplex~ . . . . .;
#X obj 18 249 r shape;
#X obj 102 234 *~ 4;
#X obj 102 256 -~ 1;
#X obj 146 210 *~ 2;
#X obj 146 232 -~ 1;
#X obj 222 209 expr~ if($v1 > 0.99 \, 1 \, -1);
#X obj 197 316 *~;
#X connect 0 0 3 0;
#X connect 0 0 25 0;
#X connect 1 0 15 0;
#X connect 2 0 1 0;
#X connect 3 0 26 0;
#X connect 3 1 2 0;
#X connect 6 0 7 0;
#X connect 7 0 5 0;
#X connect 14 0 15 0;
#X connect 15 0 16 0;
#X connect 15 1 17 0;
#X connect 15 1 19 0;
#X connect 15 2 39 0;
#X connect 15 3 33 0;
#X connect 15 4 41 0;
#X connect 16 0 35 0;
#X connect 17 0 18 0;
#X connect 18 0 19 1;
#X connect 19 0 37 0;
#X connect 20 0 4 0;
#X connect 20 0 5 0;
#X connect 22 0 27 0;
#X connect 23 0 24 0;
#X connect 24 0 6 0;
#X connect 26 0 42 1;
#X connect 27 0 26 1;
#X connect 33 0 35 3;
#X connect 35 0 42 0;
#X connect 36 0 35 0;
#X connect 37 0 38 0;
#X connect 38 0 35 1;
#X connect 39 0 40 0;
#X connect 40 0 35 2;
#X connect 41 0 35 4;
#X connect 42 0 20 0;
#X coords 0 -1 1 1 130 100 2 340 100;
