#N canvas 3166 580 614 500 10;
#X obj 45 35 inlet;
#X obj 322 270 r sintese;
#X obj 322 292 == 3;
#X obj 286 346 *;
#X obj 132 429 outlet~;
#X obj 307 159 hsl 75 15 0.9 1 0 0 empty empty empty -2 -8 0 10 -262144
-1 -1 7400 1;
#X obj 240 108 loadbang;
#X msg 240 131 1;
#X text 302 114 Karplus-Strong;
#X text 321 101 Sintese;
#X text 304 142 Duração;
#X obj 45 64 unpack f f;
#X obj 45 86 s ks-amp;
#X obj 267 290 r ks-amp;
#X obj 313 324 tgl 15 0 empty empty empty 17 7 0 10 -262144 -1 -1 0
1;
#X obj 139 376 *~;
#X obj 182 382 metro 100;
#X obj 165 406 tabwrite~ wave;
#X obj 34 212 noise~;
#X obj 51 248 *~;
#X obj 85 212 vline~;
#X obj 129 164 delread~ ksbuf;
#X obj 84 275 +~;
#X obj 118 315 delwrite~ ksbuf 2000;
#X obj 102 89 expr 1000/$f1;
#X obj 97 168 del;
#X msg 97 190 0;
#X obj 66 140 t b b;
#X msg 66 162 1;
#X obj 239 64 block~ 1;
#X obj 239 42 loadbang;
#X obj 117 292 clip~ -1 1;
#X text 116 276 Previne clipping em ksbuf;
#X obj 102 112 t b f f;
#X obj 130 216 fexpr~ $f2*(0.5*$x1[0]+0.5*$x1[-1]);
#X text 319 17 Hugo Mitsumori // 8 9 4 1 2 6 2;
#X text 305 35 Gustavo Caparica // 7 9 9 1 0 2 0;
#X text 321 70 Se baseia no exemplo dado em aula;
#X text 221 79 Muda blocksize;
#X text 394 161 Fator de atenuação;
#X text 263 368 Multiplica pela amplitude;
#X connect 0 0 11 0;
#X connect 1 0 2 0;
#X connect 2 0 14 0;
#X connect 3 0 15 1;
#X connect 3 0 16 0;
#X connect 5 0 34 1;
#X connect 6 0 7 0;
#X connect 7 0 5 0;
#X connect 11 0 12 0;
#X connect 11 1 24 0;
#X connect 13 0 3 0;
#X connect 14 0 3 1;
#X connect 15 0 4 0;
#X connect 15 0 17 0;
#X connect 16 0 17 0;
#X connect 18 0 19 0;
#X connect 19 0 22 0;
#X connect 20 0 19 1;
#X connect 21 0 34 0;
#X connect 22 0 15 0;
#X connect 22 0 31 0;
#X connect 24 0 33 0;
#X connect 25 0 26 0;
#X connect 26 0 20 0;
#X connect 27 0 28 0;
#X connect 27 1 25 0;
#X connect 28 0 20 0;
#X connect 30 0 29 0;
#X connect 31 0 23 0;
#X connect 33 0 27 0;
#X connect 33 1 25 1;
#X connect 33 2 21 0;
#X connect 34 0 22 1;
#X coords 0 -1 1 1 90 80 2 300 100;
