#N canvas 3203 378 812 491 10;
#X obj 15 5 inlet;
#X obj 15 36 unpack f f;
#X obj 98 72 s f0;
#X obj 4 152 catch~ soma;
#X obj 3 258 outlet~;
#X obj 117 261 tabwrite~ wave;
#X obj 130 234 metro 100;
#X obj 159 139 r sintese;
#X obj 177 163 == 1;
#X obj 4 227 *~;
#X obj 43 204 *;
#X obj 301 51 cnv 15 248 198 empty empty empty 20 12 0 14 -215982 -66577
0;
#N canvas 3971 50 504 1381 (subpatch) 0;
#X array amplitude-parciais 20 float 3;
#A 0 0.782353 0.699999 0.623528 0.547057 0.488233 0.441174 0.376468
0.323527 0.276468 0.235291 0.18235 0.135291 0.0882314 0.0411724 0.0235252
0.0117605 0 0 0 0;
#X coords 0 1 20 0 240 170 1 0 0;
#X restore 305 78 graph;
#X text 406 5 Hugo Mitsumori // 8 9 4 1 2 6 2;
#X text 392 23 Gustavo Caparica // 7 9 9 1 0 2 0;
#X text -1 355 cada parcial da um throw em soma;
#X text -2 297 parcial = oscilador de freq = n*f0;
#X obj 238 339 parcial 10;
#X obj 244 289 parcial 0;
#X obj 239 365 parcial 15;
#X obj 320 366 parcial 16;
#X obj 402 366 parcial 17;
#X obj 482 364 parcial 18;
#X obj 561 365 parcial 19;
#X obj 320 292 parcial 1;
#X obj 400 291 parcial 2;
#X obj 478 291 parcial 3;
#X obj 242 316 parcial 5;
#X obj 319 315 parcial 6;
#X obj 401 315 parcial 7;
#X obj 481 313 parcial 8;
#X obj 560 314 parcial 9;
#X obj 557 288 parcial 4;
#X obj 320 339 parcial 11;
#X obj 400 338 parcial 12;
#X obj 478 338 parcial 13;
#X obj 559 338 parcial 14;
#X text 351 51 Sintese Aditiva (Fourier);
#X obj 525 63 bng 15 250 50 0 reset-parciais empty empty 17 7 0 10
-262144 -1 -1;
#X text 491 63 Reset;
#X obj 573 75 r reset-parciais;
#X msg 573 97 \; amplitude-parciais const 0;
#X connect 0 0 1 0;
#X connect 1 0 10 0;
#X connect 1 1 2 0;
#X connect 3 0 9 0;
#X connect 6 0 5 0;
#X connect 7 0 8 0;
#X connect 8 0 6 0;
#X connect 8 0 10 1;
#X connect 9 0 4 0;
#X connect 9 0 5 0;
#X connect 10 0 9 1;
#X connect 40 0 41 0;
#X coords 0 -1 1 1 250 200 2 300 50;
