#N canvas 2957 193 540 438 10;
#X obj 84 6 inlet;
#X obj 178 9 inlet;
#X obj 19 349 outlet~;
#X obj 21 28 unpack f f;
#X obj 127 64 r H;
#X obj 94 103 *;
#X obj 20 292 *~;
#X obj 247 10 r I;
#X obj 13 81 f;
#X obj 28 326 tabwrite~ wave;
#X obj 54 297 metro 100;
#X obj 12 145 +~;
#X obj 95 121 osc~;
#X obj 6 205 cos~;
#X obj 94 155 *~;
#X obj 134 143 line~;
#X obj 204 119 pack 0 50;
#X obj 205 95 / 100;
#X obj 126 85 int;
#X obj 74 233 tgl 15 0 empty empty empty 17 7 0 10 -262144 -1 -1 0
1;
#X obj 65 182 r sintese;
#X obj 73 208 == 2;
#X obj 206 72 *;
#X obj 245 64 expr if($f2 == 1 \, $f1 \, 1);
#X obj 373 8 r amp-mod;
#X obj 58 77 f;
#X obj 79 65 bng 15 250 50 0 empty empty empty 17 7 0 10 -262144 -1
-1;
#X obj 271 251 cnv 15 168 88 empty empty empty 20 12 0 14 -232941 -66577
0;
#X obj 278 321 hsl 128 15 1 100 0 0 I empty empty -2 -8 0 10 -262144
-1 -1 0 1;
#X obj 278 289 hsl 128 15 1 10 0 0 H empty empty -2 -8 0 10 -262144
-1 -1 0 1;
#X obj 418 302 tgl 15 0 amp-mod empty empty 17 7 0 10 -262144 -1 -1
0 1;
#X obj 12 118 phasor~;
#X text 220 214 Hugo Mitsumori // 8 9 4 1 2 6 2;
#X text 220 228 Gustavo Caparica // 7 9 9 1 0 2 0;
#X text 209 147 soma de um oscilador central com;
#X text 212 164 outro oscilador de frequencia multipla;
#X text 219 181 da central;
#X text 324 251 Sintese FM;
#X text 273 271 harmonicidade (H);
#X text 273 306 indice de modulação (I);
#X obj 56 254 *;
#X obj 9 51 s fm-amp;
#X obj 244 41 r fm-amp;
#X obj 18 226 r fm-amp;
#X connect 0 0 3 0;
#X connect 1 0 8 0;
#X connect 3 0 41 0;
#X connect 3 1 8 0;
#X connect 4 0 18 0;
#X connect 4 0 26 0;
#X connect 5 0 12 0;
#X connect 6 0 2 0;
#X connect 6 0 9 0;
#X connect 7 0 22 0;
#X connect 8 0 25 0;
#X connect 8 0 31 0;
#X connect 10 0 9 0;
#X connect 11 0 13 0;
#X connect 12 0 14 0;
#X connect 13 0 6 0;
#X connect 14 0 11 1;
#X connect 15 0 14 1;
#X connect 16 0 15 0;
#X connect 17 0 16 0;
#X connect 18 0 5 1;
#X connect 19 0 40 1;
#X connect 20 0 21 0;
#X connect 21 0 19 0;
#X connect 22 0 17 0;
#X connect 23 0 22 1;
#X connect 24 0 23 1;
#X connect 25 0 5 0;
#X connect 26 0 25 0;
#X connect 31 0 11 0;
#X connect 40 0 6 1;
#X connect 40 0 10 0;
#X connect 42 0 23 0;
#X connect 43 0 40 0;
#X coords 0 -1 1 1 170 90 1 270 250;
