#N canvas 848 454 694 505 10;
#X obj 67 -2 inlet;
#X obj 348 309 outlet;
#X obj 425 311 outlet;
#X obj 426 286 r bg;
#X obj 67 101 phasor~;
#X obj 68 79 sig~;
#X obj 67 46 unpack f f;
#X obj 171 281 *~;
#X obj 199 396 outlet~;
#X obj 177 420 tabwrite~ wave;
#X obj 112 351 tgl 15 0 empty empty empty 17 7 0 10 -262144 -1 -1 0
1;
#X obj 311 25 inlet;
#X obj 311 49 s bg;
#X obj 112 375 metro 100;
#X obj 307 121 vradio 15 1 0 5 shape empty empty 0 -8 0 10 -262144
-1 -1 2;
#X text 328 134 triangular;
#X text 328 118 senoidal;
#X text 328 148 dente-de-serra;
#X text 329 162 quadrada;
#X text 330 177 pulso;
#X obj 1 110 r shape;
#X obj 67 149 zexy/demultiplex~ . . . . .;
#X obj 67 234 cos~;
#X obj 119 174 *~ -1;
#X obj 118 199 +~ 1;
#X obj 107 220 min~;
#X obj 181 203 expr~ $v1 > 0.5;
#X obj 300 209 -~ 0.99;
#X obj 300 236 clip~ 0 1;
#X obj 301 259 *~ 100;
#X obj 195 358 lop~ 22050;
#X obj 411 376 block~ 64 1 4;
#X obj 197 47 r sintese;
#X obj 53 290 r sintese;
#X obj 76 321 == 0;
#X obj 76 20 s a-f;
#X obj 349 280 r a-f;
#X obj 178 105 *;
#X obj 197 78 == 0;
#X connect 0 0 6 0;
#X connect 0 0 35 0;
#X connect 3 0 2 0;
#X connect 4 0 21 0;
#X connect 5 0 4 0;
#X connect 6 0 37 0;
#X connect 6 1 5 0;
#X connect 7 0 30 0;
#X connect 10 0 13 0;
#X connect 11 0 12 0;
#X connect 13 0 9 0;
#X connect 20 0 21 0;
#X connect 21 0 22 0;
#X connect 21 1 23 0;
#X connect 21 1 25 0;
#X connect 21 2 7 0;
#X connect 21 3 26 0;
#X connect 21 4 27 0;
#X connect 22 0 7 0;
#X connect 23 0 24 0;
#X connect 24 0 25 1;
#X connect 25 0 7 0;
#X connect 26 0 7 0;
#X connect 27 0 28 0;
#X connect 28 0 29 0;
#X connect 29 0 7 0;
#X connect 30 0 8 0;
#X connect 30 0 9 0;
#X connect 32 0 38 0;
#X connect 33 0 34 0;
#X connect 34 0 10 0;
#X connect 36 0 1 0;
#X connect 37 0 7 1;
#X connect 38 0 37 1;
#X coords 0 -1 1 1 200 100 1 300 100;
